<svg width="40" height="39" viewBox="0 0 40 39" fill="none" xmlns="http://www.w3.org/2000/svg">
<rect width="40" height="38.9325" rx="19.4662" fill="#F5D078"/>
<path d="M28.406 12.4448H14.3459V27.8139H28.406V12.4448Z" fill="#FFBC0E"/>
<path d="M23.1432 14.7573H11.6174V29.2259H23.1432V14.7573Z" fill="#F56132"/>
<path d="M26.6966 17.3203H16.832V29.6726H26.6966V17.3203Z" fill="#70CC40"/>
<path d="M30.6895 19.1758H9.29512C8.65319 19.1758 8.13281 19.6959 8.13281 20.3374C8.13281 20.9789 8.65319 21.499 9.29512 21.499H30.6895C31.3315 21.499 31.8518 20.9789 31.8518 20.3374C31.8518 19.6959 31.3315 19.1758 30.6895 19.1758Z" fill="#68E1FD"/>
<path d="M9.54614 21.4995L11.7762 29.955C11.9132 30.5238 12.5246 30.9323 13.2318 30.9323H26.7546C27.4618 30.9323 28.0704 30.5211 28.2102 29.955L30.4403 21.4995H9.54614ZM15.4701 28.6118C15.4701 28.9503 15.1164 29.2258 14.682 29.2258C14.2475 29.2258 13.8966 28.9517 13.8966 28.6118V23.7309C13.8966 23.3924 14.2475 23.1169 14.682 23.1169C14.8822 23.1135 15.0779 23.1766 15.2384 23.2964C15.3082 23.3458 15.3656 23.4108 15.4058 23.4862C15.446 23.5617 15.468 23.6455 15.4701 23.7309V28.6118ZM19.0118 28.6118C19.0118 28.9503 18.6609 29.2258 18.2264 29.2258C17.7919 29.2258 17.4397 28.9517 17.4397 28.6118V23.7309C17.4397 23.3924 17.7919 23.1169 18.2264 23.1169C18.4239 23.1154 18.6164 23.1784 18.7747 23.2964C18.8443 23.3459 18.9013 23.411 18.9413 23.4864C18.9813 23.5618 19.0031 23.6456 19.005 23.7309L19.0118 28.6118ZM22.5549 28.6118C22.5549 28.9503 22.2027 29.2258 21.7682 29.2258C21.3337 29.2258 20.9828 28.9517 20.9828 28.6118V23.7309C20.9828 23.3924 21.3337 23.1169 21.7682 23.1169C21.9684 23.1137 22.1641 23.1768 22.3247 23.2964C22.3942 23.3459 22.4513 23.411 22.4912 23.4864C22.5312 23.5618 22.553 23.6456 22.5549 23.7309V28.6118ZM26.0981 28.6118C26.0981 28.9503 25.7472 29.2258 25.3127 29.2258C24.8782 29.2258 24.5246 28.9517 24.5246 28.6118V23.7309C24.5246 23.3924 24.8782 23.1169 25.3127 23.1169C25.5124 23.1139 25.7076 23.177 25.8678 23.2964C25.9373 23.3459 25.9944 23.411 26.0344 23.4864C26.0743 23.5618 26.0961 23.6456 26.0981 23.7309V28.6118Z" fill="#68E1FD"/>
<path d="M18.624 10.5521C19.3287 10.5521 19.9 9.98083 19.9 9.27607C19.9 8.57132 19.3287 8 18.624 8C17.9192 8 17.3479 8.57132 17.3479 9.27607C17.3479 9.98083 17.9192 10.5521 18.624 10.5521Z" fill="#68E1FD"/>
<path d="M12.3174 20.6319C12.189 20.6891 12.0457 20.7038 11.9083 20.674C11.7709 20.6441 11.6467 20.5713 11.5536 20.4659C11.4605 20.3606 11.4034 20.2283 11.3907 20.0883C11.3779 19.9483 11.4101 19.8079 11.4827 19.6875L18.096 8.88135C18.141 8.80719 18.2002 8.74263 18.2702 8.69133C18.3401 8.64004 18.4195 8.60303 18.5037 8.58241C18.588 8.56179 18.6755 8.55797 18.7612 8.57116C18.847 8.58436 18.9293 8.61431 19.0034 8.65931C19.0776 8.70431 19.1421 8.76347 19.1934 8.83343C19.2447 8.90338 19.2817 8.98275 19.3024 9.06701C19.323 9.15126 19.3268 9.23875 19.3136 9.32449C19.3004 9.41022 19.2705 9.49252 19.2255 9.56668L12.6135 20.3728C12.5436 20.4874 12.4402 20.5778 12.3174 20.6319Z" fill="#68E1FD"/>
<path d="M21.3623 10.5521C22.067 10.5521 22.6383 9.98083 22.6383 9.27607C22.6383 8.57132 22.067 8 21.3623 8C20.6575 8 20.0862 8.57132 20.0862 9.27607C20.0862 9.98083 20.6575 10.5521 21.3623 10.5521Z" fill="#68E1FD"/>
<path d="M27.6753 20.6319C27.8037 20.6891 27.947 20.7038 28.0844 20.674C28.2217 20.6441 28.346 20.5713 28.4391 20.4659C28.5322 20.3606 28.5893 20.2283 28.602 20.0883C28.6148 19.9483 28.5825 19.8079 28.51 19.6875L21.8966 8.88135C21.8058 8.73158 21.6591 8.62405 21.4889 8.58241C21.3188 8.54077 21.139 8.56843 20.9893 8.65931C20.8395 8.75019 20.732 8.89684 20.6903 9.06701C20.6487 9.23717 20.6763 9.41691 20.7672 9.56668L27.3792 20.3728C27.4491 20.4874 27.5524 20.5778 27.6753 20.6319Z" fill="#68E1FD"/>
<path d="M27.5319 13.5124H25.6925C25.6561 13.5124 25.6213 13.498 25.5956 13.4723C25.5699 13.4466 25.5554 13.4117 25.5554 13.3753C25.5554 13.339 25.5699 13.3041 25.5956 13.2784C25.6213 13.2527 25.6561 13.2383 25.6925 13.2383H27.5319C27.5682 13.2383 27.6031 13.2527 27.6288 13.2784C27.6545 13.3041 27.669 13.339 27.669 13.3753C27.669 13.4117 27.6545 13.4466 27.6288 13.4723C27.6031 13.498 27.5682 13.5124 27.5319 13.5124Z" fill="#093F68"/>
<path d="M22.1686 15.8122H20.088C20.0516 15.8122 20.0168 15.7978 19.9911 15.7721C19.9654 15.7464 19.9509 15.7115 19.9509 15.6752C19.9509 15.6388 19.9654 15.6039 19.9911 15.5782C20.0168 15.5525 20.0516 15.5381 20.088 15.5381H22.1686C22.205 15.5381 22.2398 15.5525 22.2656 15.5782C22.2913 15.6039 22.3057 15.6388 22.3057 15.6752C22.3057 15.7115 22.2913 15.7464 22.2656 15.7721C22.2398 15.7978 22.205 15.8122 22.1686 15.8122Z" fill="#093F68"/>
<path d="M19.3146 18.2961H18.2181C18.1818 18.2961 18.1469 18.2817 18.1212 18.256C18.0955 18.2303 18.0811 18.1954 18.0811 18.159C18.0811 18.1227 18.0955 18.0878 18.1212 18.0621C18.1469 18.0364 18.1818 18.022 18.2181 18.022H19.3146C19.351 18.022 19.3859 18.0364 19.4116 18.0621C19.4373 18.0878 19.4517 18.1227 19.4517 18.159C19.4517 18.1954 19.4373 18.2303 19.4116 18.256C19.3859 18.2817 19.351 18.2961 19.3146 18.2961Z" fill="#093F68"/>
</svg>
