<svg width="216" height="56" viewBox="0 0 216 56" fill="none" xmlns="http://www.w3.org/2000/svg">
<path d="M32.7597 26.4504C32.049 23.4324 29.0287 16.286 27.3887 14.215C27.1154 14.0038 26.965 13.9016 26.8557 13.7518L21.9494 25.6601C21.9494 25.6601 24.5119 26.28 27.3887 26.6684C29.2405 26.8727 31.2017 26.8727 32.7597 26.4504ZM148.926 15.598V39.6871C148.926 44.4559 146.999 43.7066 146.295 43.8632L154.556 50.7984L164 43.2365C163.904 42.6506 163.57 42.0715 163.153 41.908C159.907 43.9109 160.126 39.8507 160.126 39.8507V11.1562C160.126 7.55916 153.75 3.68282 151.345 4.43901L142.434 13.2749C142.537 13.6428 142.844 14.3785 143.821 14.542C147.99 10.727 148.926 14.542 148.926 15.598ZM110.823 30.4766V40.6954C110.823 44.2924 109.457 43.6112 108.445 44.0199C111.261 45.5051 115.087 48.5707 118.381 50.9074L128.262 44.6671L135.594 51.0709L144.245 42.6506C144.245 42.6506 144.136 41.4243 143.083 41.4857C140.049 44.4559 139.154 39.5236 139.154 39.5236V27.0362C139.154 21.5794 132.13 20.3599 130.654 20.4144L123.581 27.2951C123.888 27.8038 124.354 28.1985 124.907 28.4192C128.214 25.8168 128.781 29.5773 128.781 29.5773V39.7961C128.686 44.0199 120.991 45.5664 120.991 39.8507V25.6124C120.342 21.6884 114.759 19.5152 113.967 20.2032L105.896 26.825C106.272 27.4586 106.306 28.2148 107.311 28.099C110.885 25.5988 110.823 30.4766 110.823 30.4766ZM57.4894 28.5214V39.6395C57.4894 42.7051 55.2071 42.6506 54.4827 42.8073L63.1884 50.3284L71.5728 42.9708C71.4033 42.514 71.135 42.1 70.787 41.7582C69.3998 42.4871 68.3475 42.0715 68.3475 40.2594V28.9914C69.0855 25.5034 74.0738 26.2869 74.0738 28.6712V40.2253C73.9508 42.5416 73.0078 43.5499 71.9555 43.8701L79.8548 50.3829L88.3486 43.2774C88.2119 42.6983 88.2119 42.1874 87.4671 41.9149C86.6197 41.9694 85.0276 43.618 85.0276 39.9528V28.9369C86.7769 24.4883 91.075 26.8251 91.2459 29.3116V39.6395C91.1844 42.0715 90.7402 43.6112 88.7449 44.2924L96.9722 50.6962L105.691 42.8618C105.691 42.3372 104.94 41.7922 104.666 41.6492C101.803 44.1289 101.96 41.002 101.919 40.5251V26.2869C101.803 23.8003 97.1362 18.6227 90.9179 20.9526L84.6996 25.5034C81.3923 19.8899 76.568 19.7332 75.2833 20.0534C73.1786 20.3531 68.7097 25.7623 68.1903 24.9107C66.2223 20.0534 60.9949 19.9512 59.9289 20.1011L52.6172 26.3959C52.9862 27.1929 53.5807 27.2951 53.9839 27.4518C55.9587 26.2937 57.2981 26.5526 57.4894 28.5214ZM19.4211 31.8663L17.1388 38.0385L22.5371 41.4857C23.3024 41.9694 24.2659 41.6492 25.7897 40.2594L26.8625 41.329C24.4231 44.1221 21.8742 46.779 19.3732 49.5858C16.0796 46.5746 12.1983 43.6112 8.48097 43.6112C4.18966 43.6997 0.19218 47.835 4.33999 55.3083C4.45616 55.4582 3.69766 56.2485 3.274 55.9215C0.0965135 53.2305 -1.18131 45.8253 1.31967 41.6492C3.069 38.9446 6.23965 36.3013 11.6585 36.9281L13.7973 31.1374C11.8361 30.3676 9.71096 31.1374 7.04598 33.2357C7.94797 28.6712 10.8111 25.4966 16.6946 24.7063L22.7216 10.3046C19.5304 9.03067 16.5511 10.5771 15.0683 13.2749C14.1663 13.1591 13.5308 12.8457 13.3599 12.2734L19.5304 0.828352C22.5371 -0.213968 25.1132 -0.213967 27.3955 0.50135C36.7982 3.47162 41.52 19.304 48.5651 36.7782C49.2143 38.4677 50.0753 38.6244 52.0911 36.4648L53.5261 37.7319L40.8161 50.3352L34.9668 32.9087C34.9668 33.0585 32.1174 33.7602 27.4024 33.3378C24.6975 33.1283 22.0223 32.6351 19.4211 31.8663Z" fill="#2546A9"/>
<path d="M171.188 50.9688L171.188 41.2812L183.656 28.3438L171.188 15.4062L171.188 6.15625L180.875 6.15625L216 41.2812L216 50.9688H206.75L193.813 38.5L180.875 50.9688H171.188ZM195.219 16.7812L205.844 6.625L216 6.625V15.8437L204.906 26.9375L195.219 16.7812Z" fill="#2546A9"/>
</svg>
