<svg width="128" height="44" viewBox="0 0 128 44" fill="none" xmlns="http://www.w3.org/2000/svg">
<path d="M25.5685 20.7824C25.0139 18.4112 22.6565 12.7962 21.3766 11.1689C21.1632 11.003 21.0459 10.9227 20.9606 10.805L17.1312 20.1615C17.1312 20.1615 19.1312 20.6486 21.3766 20.9537C22.8219 21.1143 24.3525 21.1143 25.5685 20.7824ZM116.235 12.2555V31.1828C116.235 34.9297 114.731 34.3409 114.181 34.464L120.629 39.913L128 33.9715C127.925 33.5112 127.664 33.0562 127.339 32.9277C124.805 34.5014 124.976 31.3112 124.976 31.3112V8.76557C124.976 5.93934 120 2.89364 118.123 3.48779L111.168 10.4303C111.248 10.7193 111.488 11.2974 112.251 11.4259C115.504 8.42835 116.235 11.4259 116.235 12.2555ZM86.4962 23.9459V31.975C86.4962 34.8012 85.4296 34.2659 84.6402 34.5871C86.8375 35.754 89.8242 38.1627 92.3949 39.9987L100.107 35.0956L105.829 40.1271L112.581 33.5112C112.581 33.5112 112.496 32.5477 111.675 32.5959C109.307 34.9297 108.608 31.0543 108.608 31.0543V21.2428C108.608 16.9552 103.125 15.9971 101.973 16.0399L96.4535 21.4462C96.6933 21.8458 97.0566 22.156 97.4882 22.3294C100.069 20.2846 100.512 23.2393 100.512 23.2393V31.2684C100.437 34.5871 94.4322 35.8022 94.4322 31.3112V20.124C93.9255 17.0409 89.5682 15.3334 88.9495 15.874L82.6509 21.0768C82.9442 21.5746 82.9709 22.1688 83.7549 22.0778C86.5442 20.1133 86.4962 23.9459 86.4962 23.9459ZM44.8698 22.4097V31.1453C44.8698 33.554 43.0884 33.5112 42.5231 33.6343L49.3177 39.5437L55.8617 33.7628C55.7294 33.4038 55.52 33.0785 55.2484 32.81C54.1657 33.3827 53.3444 33.0562 53.3444 31.6324V22.779C53.9204 20.0384 57.8137 20.654 57.8137 22.5274V31.6056C57.7177 33.4255 56.9817 34.2178 56.1604 34.4693L62.3257 39.5865L68.955 34.0036C68.8483 33.5487 68.8483 33.1472 68.267 32.9331C67.6056 32.9759 66.363 34.2713 66.363 31.3915V22.7362C67.7283 19.2408 71.083 21.0768 71.2163 23.0306V31.1453C71.1683 33.0562 70.8216 34.2659 69.2643 34.8012L75.6856 39.8328L82.4909 33.6771C82.4909 33.265 81.9042 32.8368 81.6909 32.7243C79.4563 34.6727 79.5789 32.2158 79.5469 31.8411V20.654C79.4563 18.7002 75.8136 14.6322 70.9603 16.4628L66.107 20.0384C63.5257 15.6278 59.7604 15.5046 58.7577 15.7562C57.115 15.9917 53.6271 20.2418 53.2217 19.5727C51.6857 15.7562 47.6058 15.6759 46.7738 15.7937L41.0671 20.7396C41.3551 21.3659 41.8191 21.4462 42.1338 21.5693C43.6751 20.6593 44.7204 20.8627 44.8698 22.4097ZM15.1579 25.0378L13.3766 29.8874L17.5899 32.5959C18.1872 32.9759 18.9392 32.7243 20.1286 31.6324L20.9659 32.4728C19.0619 34.6674 17.0726 36.7549 15.1206 38.9603C12.5499 36.5944 9.52061 34.2659 6.61929 34.2659C3.26998 34.3355 0.149994 37.5846 3.38731 43.4565C3.47798 43.5743 2.88598 44.1952 2.55531 43.9383C0.0753276 41.824 -0.922 36.0056 1.02999 32.7243C2.39532 30.5993 4.86997 28.5225 9.09928 29.0149L10.7686 24.4651C9.23795 23.8602 7.57929 24.4651 5.4993 26.1137C6.2033 22.5274 8.43795 20.033 13.0299 19.4121L17.7339 8.09648C15.2432 7.09553 12.9179 8.31059 11.7606 10.4303C11.0566 10.3393 10.5606 10.093 10.4273 9.64342L15.2432 0.650848C17.5899 -0.168118 19.6006 -0.168117 21.3819 0.393918C28.7205 2.7277 32.4058 15.1674 37.9045 28.8971C38.4111 30.2246 39.0831 30.3477 40.6565 28.6509L41.7764 29.6465L31.8565 39.5491L27.2912 25.8568C27.2912 25.9746 25.0672 26.5259 21.3872 26.194C19.2761 26.0294 17.1881 25.6418 15.1579 25.0378Z" fill="#2546A9"/>
</svg>
